<svg width="111" height="48" viewBox="0 0 111 48" xmlns="http://www.w3.org/2000/svg" xmlns:xlink="http://www.w3.org/1999/xlink">
    <defs>
        <path id="ml6qwf2sna" d="M0 0h111v48H0z"/>
    </defs>
    <g fill="none" fill-rule="evenodd">
        <mask id="j7jaay0gpb" fill="#fff">
            <use xlink:href="#ml6qwf2sna"/>
        </mask>
        <path d="M98.872 20.024c-3.426 0-5.823 2.742-6.647 7.062l12.06-.138c0-3.633-2.261-6.924-5.413-6.924zm-.617 27.908c-7.194 0-12.744-5.692-12.744-13.646 0-9.737 5.961-16.389 14.39-16.389 6.782 0 10.55 3.84 10.55 9.943v1.234l-18.5-.137c-.136.754-.205 1.99-.205 3.498 0 6.993 4.385 11.588 10.21 11.588 3.494 0 5.276-1.234 8.016-3.566L111 42.034c-3.906 3.566-7.126 5.898-12.745 5.898zM66.6 47.383v-1.577c3.083-.206 3.973-.892 4.522-2.058V8.228c0-2.331-.343-3.29-5.07-3.702V3.155L78.59 0 79 1.166l-1.986 2.468v40.114c.685 1.372 1.987 1.852 4.796 2.058v1.577H66.6zm-20.898-10.56c-.274 1.097-.48 2.057-.48 3.566 0 2.057 1.165 4.113 3.426 4.113 2.056 0 3.22-.684 5.07-2.125l.069-9.258c-1.782.823-6.167 2.744-8.085 3.704zM59.405 48c-3.7 0-5.481-2.538-5.618-4.32-2.33 2.469-5.344 4.32-8.222 4.32-3.7 0-6.852-2.263-6.852-6.17 0-1.921.48-3.91 1.439-5.487l13.635-4.937v-5.075c0-3.085-1.44-6.034-4.522-6.034-1.85 0-3.632 2.263-3.769 5.76l-6.167 1.029V26.4c2.056-6.172 8.84-8.57 12.128-8.57 6.236 0 8.496 3.29 8.428 8.364l-.205 14.4c-.069 2.812 1.438 3.497 2.81 3.497 1.095 0 2.191-.685 3.494-1.988v1.988C64.476 45.875 61.804 48 59.405 48zM36.931 10.08 25.626 29.143v12.823c1.302 3.086 4.59 3.496 7.743 3.634v1.783H11.237V45.6c3.152-.138 6.99-.617 8.017-2.674V29.691L7.743 10.217C5.756 6.926 3.838 5.83 0 5.554V3.772h19.254v1.782c-3.632.206-4.796.892-5.824 1.715l10.689 18.514L34.602 7.337c-1.096-.822-2.535-1.577-6.167-1.783V3.772H44.88v1.782c-3.7.138-6.03 1.372-7.948 4.526z" fill="#FFFFFE" mask="url(#j7jaay0gpb)"/>
    </g>
</svg>
